<?xml version="1.0" encoding="UTF-8"?>
<svg width="159px" height="25px" viewBox="0 0 159 25" version="1.1" xmlns="http://www.w3.org/2000/svg" xmlns:xlink="http://www.w3.org/1999/xlink">
    <title>myperfectCV</title>
    <g id="Page-1" stroke="none" stroke-width="1" fill="none" fill-rule="evenodd">
        <g id="myperfectCV" fill-rule="nonzero">
            <path d="M7.25788235,19.497012 L7.25788235,18.5258964 C6.74243137,18.4926959 6.40156863,18.4179947 6.23529412,18.3017928 C6.06901961,18.185591 5.98588235,17.936587 5.98588235,17.5547809 L5.98588235,17.5547809 L5.98588235,9.08864542 C6.7174902,8.70683931 7.38258824,8.51593625 7.98117647,8.51593625 C8.5132549,8.51593625 8.89152941,8.65703851 9.116,8.93924303 C9.34047059,9.22144754 9.45270588,9.64475432 9.45270588,10.2091633 L9.45270588,10.2091633 L9.45270588,17.5547809 C9.45270588,17.936587 9.37372549,18.185591 9.21576471,18.3017928 C9.05780392,18.4179947 8.72109804,18.4926959 8.20564706,18.5258964 L8.20564706,18.5258964 L8.20564706,19.497012 L15.3138824,19.497012 L15.3138824,18.5258964 C14.7984314,18.4926959 14.4617255,18.4179947 14.3037647,18.3017928 C14.1458039,18.185591 14.0668235,17.936587 14.0668235,17.5547809 L14.0668235,17.5547809 L14.0668235,9.08864542 C14.8649412,8.70683931 15.5217255,8.51593625 16.0371765,8.51593625 C16.5858824,8.51593625 16.9724706,8.65703851 17.1969412,8.93924303 C17.4214118,9.22144754 17.5336471,9.64475432 17.5336471,10.2091633 L17.5336471,10.2091633 L17.5336471,17.5547809 C17.5336471,17.936587 17.4546667,18.185591 17.2967059,18.3017928 C17.1387451,18.4179947 16.8020392,18.4926959 16.2865882,18.5258964 L16.2865882,18.5258964 L16.2865882,19.497012 L23.5195294,19.497012 L23.5195294,18.5258964 C22.987451,18.4926959 22.6258039,18.4179947 22.4345882,18.3017928 C22.2433725,18.185591 22.1477647,17.936587 22.1477647,17.5547809 L22.1477647,17.5547809 L22.1477647,9.78585657 C22.1477647,8.49103586 21.836,7.50747012 21.2124706,6.83515936 C20.5889412,6.16284861 19.6952157,5.82669323 18.5312941,5.82669323 C16.6357647,5.82669323 15.1143529,6.68990704 13.9670588,8.41633466 C13.6345098,6.68990704 12.478902,5.82669323 10.5002353,5.82669323 C8.65458824,5.82669323 7.14980392,6.67330677 5.98588235,8.36653386 L5.98588235,8.36653386 L6.08564706,5.82669323 L5.23764706,5.82669323 L0.0249411765,7.27091633 L0.0249411765,7.96812749 L1.39670588,8.81474104 L1.39670588,17.5547809 C1.39670588,17.936587 1.30109804,18.185591 1.10988235,18.3017928 C0.918666667,18.4179947 0.548705882,18.4926959 -2.84682542e-14,18.5258964 L-2.84682542e-14,18.5258964 L-2.84682542e-14,19.497012 L7.25788235,19.497012 Z M27.4103529,25 C28.2417255,25 28.9276078,24.7343958 29.468,24.2031873 C30.0083922,23.6719788 30.5196863,22.8253652 31.0018824,21.6633466 L31.0018824,21.6633466 L36.6884706,8.04282869 C36.8048627,7.76062417 36.9420392,7.55727092 37.1,7.43276892 C37.2579608,7.30826693 37.5447843,7.17961487 37.9604706,7.04681275 L37.9604706,7.04681275 L37.9604706,6.07569721 L33.4211765,6.07569721 L33.4211765,7.04681275 C34.0862745,7.12981408 34.526902,7.22941567 34.7430588,7.34561753 C34.9592157,7.46181939 35.0672941,7.65272244 35.0672941,7.91832669 C35.0672941,8.05112882 35.0007843,8.29183267 34.8677647,8.64043825 L34.8677647,8.64043825 L32.3985882,14.9651394 L29.7797647,8.61553785 C29.6633725,8.26693227 29.6051765,8.03452855 29.6051765,7.91832669 C29.6051765,7.65272244 29.7132549,7.46181939 29.9294118,7.34561753 C30.1455686,7.22941567 30.5861961,7.12981408 31.2512941,7.04681275 L31.2512941,7.04681275 L31.2512941,6.07569721 L23.2701176,6.07569721 L23.2701176,7.04681275 C23.6858039,7.17961487 23.9684706,7.30826693 24.1181176,7.43276892 C24.2677647,7.55727092 24.409098,7.76062417 24.5421176,8.04282869 L24.5421176,8.04282869 L30.2287059,20.1195219 L29.8296471,20.9910359 C29.6134902,21.5056441 29.3058824,21.875 28.9068235,22.0991036 C28.5077647,22.3232072 27.9590588,22.435259 27.2607059,22.435259 C26.8283922,22.435259 26.1799216,22.3522576 25.3152941,22.186255 L25.3152941,22.186255 L25.3152941,23.9541833 C25.6977255,24.6513944 26.3960784,25 27.4103529,25 Z" id="my" fill="#002D6B"></path>
            <path d="M46.3656471,24.7758964 L46.3656471,23.8047809 C45.5675294,23.7383798 45.0479216,23.6470784 44.8068235,23.5308765 C44.5657255,23.4146746 44.4451765,23.1490704 44.4451765,22.7340637 L44.4451765,22.7340637 L44.4451765,19.2231076 C44.8608627,19.5717131 45.5841569,19.7460159 46.6150588,19.7460159 C48.6768627,19.7460159 50.3687059,19.065405 51.6905882,17.7041833 C53.0124706,16.3429615 53.6734118,14.4256308 53.6734118,11.9521912 C53.6734118,9.97675963 53.2161569,8.46198539 52.3016471,7.40786853 C51.3871373,6.35375166 50.1650196,5.82669323 48.6352941,5.82669323 C47.670902,5.82669323 46.8353725,6.06324701 46.1287059,6.53635458 C45.4220392,7.00946215 44.8608627,7.57802125 44.4451765,8.24203187 L44.4451765,8.24203187 L44.5449412,5.82669323 L43.672,5.82669323 L38.4592941,7.27091633 L38.4592941,7.96812749 L39.8310588,8.81474104 L39.8310588,22.8336653 C39.8310588,23.2154714 39.735451,23.4644754 39.5442353,23.5806773 C39.3530196,23.6968792 38.9830588,23.7715803 38.4343529,23.8047809 L38.4343529,23.8047809 L38.4343529,24.7758964 L46.3656471,24.7758964 Z M46.216,18.5756972 C45.035451,18.5756972 44.4451765,17.7041833 44.4451765,15.9611554 L44.4451765,15.9611554 L44.4451765,8.96414343 C44.8608627,8.68193891 45.3513725,8.54083665 45.9167059,8.54083665 C46.8977255,8.54083665 47.6542745,8.93924303 48.1863529,9.73605578 C48.7184314,10.5328685 48.9844706,11.7363878 48.9844706,13.3466135 C48.9844706,14.873838 48.7392157,16.127158 48.2487059,17.1065737 C47.7581961,18.0859894 47.0806275,18.5756972 46.216,18.5756972 Z M61.4550588,19.7460159 C62.9847843,19.7460159 64.236,19.3393094 65.2087059,18.5258964 C66.1814118,17.7124834 66.8423529,16.6002656 67.1915294,15.189243 L67.1915294,15.189243 L66.7176471,14.8904382 C65.8031373,16.1022576 64.5643922,16.7081673 63.0014118,16.7081673 C61.8541176,16.7081673 60.9188235,16.2724104 60.1955294,15.4008964 C59.4722353,14.5293825 59.118902,13.3632138 59.1355294,11.9023904 L59.1355294,11.9023904 L67.0917647,11.9023904 L67.0917647,11.2798805 C67.0917647,9.63645418 66.6220392,8.31673307 65.6825882,7.32071713 C64.7431373,6.3247012 63.3921569,5.82669323 61.6296471,5.82669323 C59.784,5.82669323 58.2127059,6.49900398 56.9157647,7.8436255 C55.6188235,9.18824701 54.9703529,10.939575 54.9703529,13.0976096 C54.9703529,15.1394422 55.5772549,16.7579681 56.7910588,17.9531873 C58.0048627,19.1484064 59.5595294,19.7460159 61.4550588,19.7460159 Z M63.1510588,10.7569721 L59.1604706,10.7569721 C59.2934902,8.16733068 60.0167843,6.87250996 61.3303529,6.87250996 C62.5441569,6.87250996 63.1510588,8.16733068 63.1510588,10.7569721 L63.1510588,10.7569721 Z M76.0955294,19.497012 L76.0955294,18.5258964 C75.2974118,18.4262948 74.7653333,18.3017928 74.4992941,18.1523904 C74.2332549,18.002988 74.1002353,17.6792829 74.1002353,17.1812749 L74.1002353,17.1812749 L74.1002353,10.6075697 C74.6156863,10.2257636 75.1893333,9.98090969 75.8211765,9.87300797 C76.4530196,9.76510624 77.2511373,9.71115538 78.2155294,9.71115538 L78.2155294,9.71115538 L78.8141176,9.71115538 L78.8141176,6.25 C78.531451,5.96779548 78.1157647,5.82669323 77.5670588,5.82669323 C76.7689412,5.82669323 76.1204706,6.10474768 75.6216471,6.66085657 C75.1228235,7.21696547 74.6156863,8.21713147 74.1002353,9.66135458 L74.1002353,9.66135458 L74.2,5.82669323 L73.352,5.82669323 L68.1392941,7.27091633 L68.1392941,7.96812749 L69.5110588,8.81474104 L69.5110588,17.5547809 C69.5110588,17.936587 69.415451,18.185591 69.2242353,18.3017928 C69.0330196,18.4179947 68.6630588,18.4926959 68.1143529,18.5258964 L68.1143529,18.5258964 L68.1143529,19.497012 L76.0955294,19.497012 Z M87.5185882,19.497012 L87.5185882,18.5258964 C86.7204706,18.4262948 86.1883922,18.3017928 85.9223529,18.1523904 C85.6563137,18.002988 85.5232941,17.6792829 85.5232941,17.1812749 L85.5232941,17.1812749 L85.5232941,7.42031873 L88.4414118,7.42031873 L88.4414118,6.07569721 L85.5232941,6.07569721 L85.5232941,2.83864542 C85.5232941,1.67662683 85.8807843,1.09561753 86.5957647,1.09561753 C87.1943529,1.09561753 87.4936471,1.66832669 87.4936471,2.81374502 C87.4936471,3.21215139 87.4520784,3.60225764 87.3689412,3.98406375 L87.3689412,3.98406375 L89.7134118,3.98406375 C90.3286275,3.6686587 90.6362353,3.14575033 90.6362353,2.41533865 C90.6362353,0.805112882 89.3476078,0 86.7703529,0 C85.041098,0 83.6360784,0.460657371 82.5552941,1.38197211 C81.4745098,2.30328685 80.9341176,3.6686587 80.9341176,5.47808765 L80.9341176,5.47808765 L80.9341176,5.95119522 L79.1383529,6.42430279 L79.1383529,7.42031873 L80.9341176,7.42031873 L80.9341176,17.5547809 C80.9341176,17.936587 80.8385098,18.185591 80.6472941,18.3017928 C80.4560784,18.4179947 80.0861176,18.4926959 79.5374118,18.5258964 L79.5374118,18.5258964 L79.5374118,19.497012 L87.5185882,19.497012 Z M95.3750588,19.7460159 C96.9047843,19.7460159 98.156,19.3393094 99.1287059,18.5258964 C100.101412,17.7124834 100.762353,16.6002656 101.111529,15.189243 L101.111529,15.189243 L100.637647,14.8904382 C99.7231373,16.1022576 98.4843922,16.7081673 96.9214118,16.7081673 C95.7741176,16.7081673 94.8388235,16.2724104 94.1155294,15.4008964 C93.3922353,14.5293825 93.038902,13.3632138 93.0555294,11.9023904 L93.0555294,11.9023904 L101.011765,11.9023904 L101.011765,11.2798805 C101.011765,9.63645418 100.542039,8.31673307 99.6025882,7.32071713 C98.6631373,6.3247012 97.3121569,5.82669323 95.5496471,5.82669323 C93.704,5.82669323 92.1327059,6.49900398 90.8357647,7.8436255 C89.5388235,9.18824701 88.8903529,10.939575 88.8903529,13.0976096 C88.8903529,15.1394422 89.4972549,16.7579681 90.7110588,17.9531873 C91.9248627,19.1484064 93.4795294,19.7460159 95.3750588,19.7460159 Z M97.0710588,10.7569721 L93.0804706,10.7569721 C93.2134902,8.16733068 93.9367843,6.87250996 95.2503529,6.87250996 C96.4641569,6.87250996 97.0710588,8.16733068 97.0710588,10.7569721 L97.0710588,10.7569721 Z M108.394353,19.7460159 C111.354039,19.7460159 113.232941,18.2768924 114.031059,15.3386454 L114.031059,15.3386454 L113.482353,14.9900398 C112.71749,16.0856574 111.611765,16.6334661 110.165176,16.6334661 C108.934745,16.6334661 107.97451,16.1769588 107.284471,15.2639442 C106.594431,14.3509296 106.249412,13.0893094 106.249412,11.4790837 C106.249412,10.1676627 106.469725,9.08449535 106.910353,8.22958167 C107.35098,7.37466799 107.945412,6.94721116 108.693647,6.94721116 C109.757804,6.94721116 110.289882,7.76062417 110.289882,9.3874502 C110.289882,9.85225764 110.256627,10.3253652 110.190118,10.8067729 L110.190118,10.8067729 L112.559529,10.8067729 C113.291137,10.4747676 113.656941,9.8688579 113.656941,8.98904382 C113.656941,7.94322709 113.232941,7.15471448 112.384941,6.62350598 C111.536941,6.09229748 110.439529,5.82669323 109.092706,5.82669323 C107.047529,5.82669323 105.397255,6.51975432 104.141882,7.90587649 C102.88651,9.29199867 102.258824,11.0557769 102.258824,13.1972112 C102.258824,15.189243 102.836627,16.7787185 103.992235,17.9656375 C105.147843,19.1525564 106.615216,19.7460159 108.394353,19.7460159 Z M119.717647,19.7460159 C121.613176,19.7460159 123.059765,18.9326029 124.057412,17.3057769 L124.057412,17.3057769 L123.683294,16.7579681 C123.051451,17.1729748 122.452863,17.3804781 121.887529,17.3804781 C120.939765,17.3804781 120.465882,16.8077689 120.465882,15.6623506 L120.465882,15.6623506 L120.465882,7.42031873 L123.384,7.42031873 L123.384,6.07569721 L120.465882,6.07569721 L120.465882,2.68924303 L119.493176,2.68924303 C118.079843,4.54847278 116.383843,5.85159363 114.405176,6.59860558 L114.405176,6.59860558 L114.405176,7.42031873 L115.826824,7.42031873 L115.826824,15.6623506 C115.826824,17.0733732 116.171843,18.1067397 116.861882,18.7624502 C117.551922,19.4181607 118.503843,19.7460159 119.717647,19.7460159 Z" id="perfect" fill="#FF3D3C"></path>
            <path d="M133.909176,19.7460159 C136.453176,19.7460159 138.490039,19.2065073 140.019765,18.12749 L140.019765,18.12749 L140.443765,13.1723108 L139.196706,13.1723108 C138.265569,16.6749668 136.710902,18.4262948 134.532706,18.4262948 C133.036235,18.4262948 131.884784,17.7000332 131.078353,16.24751 C130.271922,14.7949867 129.868706,12.8901062 129.868706,10.5328685 C129.868706,8.29183267 130.23451,6.47825365 130.966118,5.09213147 C131.697725,3.7060093 132.803451,3.01294821 134.283294,3.01294821 C136.478118,3.01294821 137.899765,4.54017264 138.548235,7.59462151 L138.548235,7.59462151 L139.770353,7.59462151 L139.695529,3.23705179 C138.215686,2.25763612 136.361725,1.76792829 134.133647,1.76792829 C131.456627,1.76792829 129.216078,2.6311421 127.412,4.35756972 C125.607922,6.08399734 124.705882,8.374834 124.705882,11.2300797 C124.705882,13.8529216 125.528941,15.9279548 127.175059,17.4551793 C128.821176,18.9824037 131.065882,19.7460159 133.909176,19.7460159 Z M151.143529,19.5966135 L157.528471,3.98406375 C157.728,3.46945551 158.21851,3.1623506 159,3.062749 L159,3.062749 L159,2.01693227 L153.812235,2.01693227 L153.812235,3.062749 C154.543843,3.07934927 155.030196,3.16650066 155.271294,3.32420319 C155.512392,3.48190571 155.632941,3.75996016 155.632941,4.15836653 C155.632941,4.35756972 155.54149,4.68957503 155.358588,5.15438247 L155.358588,5.15438247 L152.141176,13.4462151 L148.300235,5.15438247 C148.133961,4.77257636 148.050824,4.43227092 148.050824,4.13346614 C148.050824,3.75166003 148.171373,3.48190571 148.412471,3.32420319 C148.653569,3.16650066 149.139922,3.07934927 149.871529,3.062749 L149.871529,3.062749 L149.871529,2.01693227 L141.017412,2.01693227 L141.017412,3.062749 C141.416471,3.1125498 141.719922,3.19555113 141.927765,3.31175299 C142.135608,3.42795485 142.314353,3.65205843 142.464,3.98406375 L142.464,3.98406375 L149.746824,19.5966135 L151.143529,19.5966135 Z" id="CV" fill="#002D6B"></path>
        </g>
    </g>
</svg>